<svg width="499" height="117" viewBox="0 0 499 117" fill="none" xmlns="http://www.w3.org/2000/svg">
<path d="M0.686646 115V0.224243H28.4279V92.4708H76.1764V115H0.686646Z" fill="#FAFAFA"/>
<path d="M146.076 77.8436V28.9182H173.425V115H147.309V98.9718H146.412C144.507 104.24 141.256 108.424 136.661 111.525C132.102 114.589 126.592 116.121 120.128 116.121C114.262 116.121 109.106 114.776 104.66 112.086C100.214 109.396 96.7581 105.641 94.2922 100.821C91.8263 95.9641 90.5747 90.2851 90.5374 83.7841V28.9182H117.942V78.404C117.98 83.0743 119.213 86.7544 121.641 89.4445C124.07 92.1345 127.376 93.4796 131.561 93.4796C134.288 93.4796 136.735 92.8818 138.902 91.6862C141.107 90.4532 142.844 88.6786 144.114 86.3621C145.422 84.0083 146.076 81.1688 146.076 77.8436Z" fill="#FAFAFA"/>
<path d="M231.051 116.625C221.972 116.625 214.182 114.757 207.681 111.021C201.217 107.285 196.248 102.091 192.774 95.4411C189.299 88.7533 187.562 81.0194 187.562 72.2393C187.562 63.4219 189.299 55.688 192.774 49.0376C196.286 42.3498 201.273 37.1378 207.737 33.4016C214.238 29.6654 221.991 27.7973 230.995 27.7973C238.953 27.7973 245.883 29.2358 251.787 32.1126C257.727 34.9895 262.36 39.0619 265.685 44.33C269.048 49.5606 270.823 55.7067 271.009 62.7681H245.398C244.875 58.3594 243.38 54.9034 240.914 52.4001C238.486 49.8969 235.31 48.6453 231.387 48.6453C228.211 48.6453 225.428 49.542 223.037 51.3353C220.646 53.0913 218.777 55.7067 217.432 59.1813C216.125 62.6186 215.471 66.8779 215.471 71.9591C215.471 77.0403 216.125 81.3369 217.432 84.849C218.777 88.3236 220.646 90.9576 223.037 92.751C225.428 94.507 228.211 95.385 231.387 95.385C233.928 95.385 236.169 94.8433 238.112 93.7598C240.092 92.6763 241.718 91.0884 242.988 88.9961C244.258 86.8665 245.062 84.2885 245.398 81.2622H271.009C270.748 88.361 268.973 94.5631 265.685 99.8684C262.435 105.174 257.858 109.302 251.955 112.254C246.089 115.168 239.121 116.625 231.051 116.625Z" fill="#FAFAFA"/>
<path d="M309.301 116.457C303.808 116.457 298.933 115.542 294.673 113.711C290.452 111.843 287.108 109.041 284.642 105.305C282.213 101.531 280.999 96.8048 280.999 91.1258C280.999 86.3434 281.84 82.3083 283.521 79.0205C285.202 75.7327 287.519 73.0613 290.47 71.0064C293.422 68.9515 296.822 67.4009 300.67 66.3548C304.518 65.2713 308.628 64.5428 312.999 64.1691C317.894 63.7208 321.836 63.2538 324.825 62.7681C327.813 62.245 329.98 61.5164 331.326 60.5824C332.708 59.611 333.399 58.2473 333.399 56.4913V56.2111C333.399 53.3342 332.409 51.1112 330.429 49.542C328.449 47.9728 325.777 47.1882 322.415 47.1882C318.791 47.1882 315.876 47.9728 313.672 49.542C311.468 51.1112 310.067 53.2781 309.469 56.0429L284.193 55.1462C284.941 49.9156 286.865 45.2453 289.966 41.1355C293.104 36.9884 297.401 33.7379 302.856 31.3841C308.348 28.9929 314.942 27.7973 322.639 27.7973C328.131 27.7973 333.194 28.4512 337.826 29.7588C342.459 31.0291 346.494 32.8972 349.932 35.3631C353.369 37.7916 356.022 40.7806 357.89 44.33C359.795 47.8794 360.748 51.9331 360.748 56.4913V115H334.968V103.007H334.296C332.764 105.921 330.802 108.387 328.411 110.405C326.057 112.422 323.274 113.935 320.061 114.944C316.885 115.953 313.298 116.457 309.301 116.457ZM317.763 98.5234C320.715 98.5234 323.367 97.9256 325.721 96.73C328.112 95.5345 330.018 93.8905 331.438 91.7983C332.857 89.6686 333.567 87.2028 333.567 84.4006V76.2184C332.783 76.6293 331.83 77.003 330.709 77.3392C329.626 77.6755 328.43 77.9931 327.122 78.2919C325.815 78.5908 324.47 78.8524 323.087 79.0765C321.705 79.3007 320.378 79.5062 319.108 79.693C316.53 80.104 314.326 80.7391 312.495 81.5985C310.702 82.4578 309.319 83.5787 308.348 84.961C307.414 86.3061 306.947 87.9126 306.947 89.7807C306.947 92.6202 307.956 94.7872 309.973 96.2817C312.028 97.7762 314.625 98.5234 317.763 98.5234Z" fill="#FAFAFA"/>
<path d="M452.658 55.2023L427.495 55.8748C427.233 54.0814 426.524 52.4935 425.365 51.1112C424.207 49.6914 422.694 48.5892 420.826 47.8046C418.995 46.9827 416.866 46.5717 414.437 46.5717C411.261 46.5717 408.553 47.2068 406.311 48.4771C404.106 49.7474 403.023 51.4661 403.06 53.6331C403.023 55.3144 403.695 56.7715 405.078 58.0044C406.498 59.2374 409.02 60.2275 412.644 60.9747L429.232 64.1131C437.826 65.757 444.214 68.4844 448.399 72.2954C452.621 76.1063 454.751 81.1501 454.788 87.4269C454.751 93.3301 452.995 98.4674 449.52 102.839C446.083 107.21 441.375 110.61 435.397 113.039C429.419 115.43 422.582 116.625 414.885 116.625C402.593 116.625 392.898 114.103 385.799 109.059C378.738 103.978 374.703 97.1784 373.694 88.6599L400.763 87.9874C401.36 91.1258 402.911 93.5169 405.414 95.1608C407.917 96.8048 411.112 97.6267 414.997 97.6267C418.509 97.6267 421.368 96.9729 423.572 95.6652C425.776 94.3576 426.897 92.6202 426.935 90.4532C426.897 88.5104 426.038 86.9599 424.357 85.8017C422.675 84.6061 420.041 83.6721 416.455 82.9995L401.435 80.1414C392.804 78.5722 386.378 75.6766 382.156 71.4547C377.934 67.1955 375.842 61.778 375.88 55.2023C375.842 49.4486 377.374 44.5355 380.475 40.463C383.576 36.3532 387.985 33.2148 393.701 31.0478C399.418 28.8808 406.161 27.7973 413.933 27.7973C425.59 27.7973 434.781 30.2445 441.506 35.1389C448.231 39.996 451.948 46.6838 452.658 55.2023Z" fill="#FAFAFA"/>
<path d="M483.692 116.625C479.657 116.625 476.201 115.206 473.324 112.366C470.485 109.526 469.083 106.089 469.121 102.054C469.083 98.0938 470.485 94.7125 473.324 91.9104C476.201 89.0709 479.657 87.6511 483.692 87.6511C487.503 87.6511 490.865 89.0709 493.78 91.9104C496.731 94.7125 498.226 98.0938 498.263 102.054C498.226 104.744 497.516 107.191 496.134 109.396C494.788 111.6 493.014 113.356 490.809 114.664C488.642 115.971 486.27 116.625 483.692 116.625Z" fill="#FE842B"/>
</svg>
